<svg width="520" height="540" viewBox="0 0 520 540" fill="none" xmlns="http://www.w3.org/2000/svg">
<path opacity="0.1" d="M518.331 350.767C513.006 415.849 469.925 474.833 411.279 507.157C352.381 539.425 279.774 546.25 212.462 531.906C135.016 515.282 61.9004 468.755 25.2048 401.141C-14.1828 328.929 -6.12349 230.39 49.3284 169.664C75.5437 140.691 110.779 120.136 138.793 92.6328C169.632 62.0383 193.567 21.9051 235.295 6.80324C263.405 -3.37664 295.62 0.143783 323.616 11.7656C351.613 23.3874 375.563 42.3505 396.662 63.3342C470.076 135.748 526.567 249.074 518.331 350.767Z" fill="url(#paint0_linear_147_95)"/>
<defs>
<linearGradient id="paint0_linear_147_95" x1="211.169" y1="531.456" x2="328.455" y2="10.0926" gradientUnits="userSpaceOnUse">
<stop stop-color="#0F7AEF"/>
<stop offset="1" stop-color="#6CE3FF"/>
</linearGradient>
</defs>
</svg>
