<svg width="832" height="552" viewBox="0 0 832 552" fill="none" xmlns="http://www.w3.org/2000/svg">
<path fill-rule="evenodd" clip-rule="evenodd" d="M0 20C0 8.9543 8.95431 0 20 0H812C823.046 0 832 8.9543 832 20V532C832 543.046 823.046 552 812 552H20C8.95428 552 0 543.046 0 532V20ZM30 51C30 39.9543 38.9543 31 50 31H192C203.046 31 212 39.9543 212 51V501C212 512.046 203.046 521 192 521H50C38.9543 521 30 512.046 30 501V51ZM443 31C431.954 31 423 39.9543 423 51V501C423 512.046 431.954 521 443 521H585C596.046 521 605 512.046 605 501V51C605 39.9543 596.046 31 585 31H443ZM227 77.0532C227 66.0075 235.954 57.0532 247 57.0532H388C399.046 57.0532 408 66.0075 408 77.0532V473.945C408 484.991 399.046 493.945 388 493.945H247C235.954 493.945 227 484.991 227 473.945V77.0532ZM640 57.0532C628.954 57.0532 620 66.0075 620 77.0532V473.945C620 484.991 628.954 493.945 640 493.945H782C793.046 493.945 802 484.991 802 473.945V77.0532C802 66.0075 793.046 57.0532 782 57.0532H640Z" fill="#F4F4FF"/>
</svg>
