<svg width="14" height="42" viewBox="0 0 14 42" fill="none" xmlns="http://www.w3.org/2000/svg">
<path d="M5.10663 39.2256C6.05227 39.0008 6.99422 38.7689 7.94354 38.5623C8.2379 38.497 8.61321 38.294 8.82662 38.6094C9.05107 38.9429 8.80454 39.28 8.60217 39.5736C8.30045 40.0122 7.86995 40.2913 7.36217 40.4326C5.53714 40.9473 3.71946 41.4947 1.87234 41.926C0.455732 42.2559 -0.302248 41.4548 0.113537 40.0774C0.628669 38.3593 1.24683 36.6701 1.85027 34.981C2.0416 34.4445 2.41691 33.9262 3.06451 34.1256C3.63115 34.2995 3.46189 34.8904 3.41406 35.3507C3.41038 35.3906 3.39934 35.4268 3.39934 35.4667C3.3883 36.1083 2.75543 37.0362 3.32943 37.3008C3.97702 37.5981 4.42225 36.6085 4.87483 36.1155C11.509 28.8189 13.3782 20.3841 10.8945 10.9924C10.1439 8.15056 8.76775 5.54799 7.0531 3.13028C6.55268 2.42707 6.13322 1.6695 5.69536 0.93005C5.56289 0.705315 5.37524 0.433458 5.59969 0.176101C5.85725 -0.113879 6.18105 0.0202364 6.47909 0.136229C6.93535 0.317466 7.25547 0.669068 7.56823 1.02067C11.1668 5.08402 13.231 9.82882 13.8087 15.1645C14.6991 23.4035 12.2817 30.6349 6.7109 36.8441C6.09274 37.5328 5.53714 38.2759 4.9521 38.99C5.00361 39.0697 5.05512 39.1495 5.10663 39.2256Z" fill="url(#paint0_linear_156_297)"/>
<defs>
<linearGradient id="paint0_linear_156_297" x1="0.00447833" y1="20.9722" x2="14.0016" y2="20.9722" gradientUnits="userSpaceOnUse">
<stop stop-color="#0F7AEF"/>
<stop offset="1" stop-color="#6CE3FF"/>
</linearGradient>
</defs>
</svg>
