<svg width="22" height="14" viewBox="0 0 22 14" fill="none" xmlns="http://www.w3.org/2000/svg">
<path d="M10.8492 13.9998C8.75296 13.9572 6.77649 13.1648 4.95403 11.9633C3.21713 10.813 1.72837 9.39854 0.419276 7.7881C-0.136873 7.11495 -0.136873 6.87637 0.402164 6.22026C2.06206 4.1923 3.97863 2.44552 6.33157 1.21852C9.62568 -0.502693 12.877 -0.37488 16.077 1.44006C18.2759 2.68411 20.0984 4.36272 21.6727 6.32251C22.0834 6.83377 22.1091 7.12348 21.7412 7.5836C19.8332 9.96944 17.6 11.9633 14.7594 13.1988C13.5786 13.7101 12.1669 14.0083 10.8492 13.9998ZM11.1401 12.4405C11.8332 12.4746 12.6717 12.3042 13.4845 12.023C16.1284 11.1112 18.1476 9.34742 19.9786 7.31093C20.1925 7.07235 20.1925 6.91897 19.9786 6.67187C18.6781 5.20628 17.2407 3.90259 15.538 2.89713C13.1337 1.48267 10.6268 1.05662 7.97435 2.14729C5.5444 3.16128 3.63638 4.84841 1.93371 6.79116C1.76259 6.98714 1.85671 7.11495 1.99361 7.25981C3.32836 8.79356 4.82569 10.1484 6.59681 11.1538C7.94012 11.9292 9.37755 12.449 11.1401 12.4405Z" fill="#3661FC"/>
<path d="M11.0369 2.62454C13.4326 2.64158 15.4005 4.63546 15.3834 7.02982C15.3663 9.41566 13.3642 11.3755 10.9599 11.3584C8.56419 11.3414 6.59628 9.3475 6.61339 6.95314C6.6305 4.5673 8.63264 2.61602 11.0369 2.62454ZM13.8091 6.98722C13.8005 5.40234 12.577 4.19238 10.9856 4.19238C9.39414 4.2009 8.17917 5.41938 8.17917 7.00426C8.18772 8.58914 9.41125 9.7991 11.0027 9.7991C12.6027 9.7991 13.8177 8.5721 13.8091 6.98722Z" fill="#3661FC"/>
</svg>
