<svg width="41" height="50" viewBox="0 0 41 50" fill="none" xmlns="http://www.w3.org/2000/svg">
<path d="M20.4619 48.9998C12.392 48.996 6.04928 42.1749 6.58383 33.9784C6.8382 30.0956 8.48057 26.8425 11.3745 24.2827C11.8925 23.8255 11.9533 23.5032 11.6234 22.8848C8.07136 16.2511 4.55438 9.59677 1.03004 2.94809C0.311158 1.5895 0.731425 0.890524 2.27241 0.886776C5.19031 0.879281 8.10822 0.911137 11.0243 0.868037C11.9109 0.85492 12.4381 1.18098 12.8491 1.9699C15.1514 6.38299 17.485 10.7755 19.8167 15.1717C19.9716 15.464 20.0361 15.9381 20.3955 15.9531C20.8305 15.9719 20.8821 15.4547 21.048 15.1455C23.3669 10.7773 25.6876 6.4111 27.9732 2.02612C28.3972 1.21097 28.9244 0.849298 29.8571 0.866163C32.7731 0.916759 35.691 0.879281 38.6089 0.886776C40.1352 0.890524 40.5389 1.59887 39.8108 2.97433C36.2864 9.62301 32.7694 16.2773 29.2138 22.911C28.8654 23.5613 29.0276 23.863 29.505 24.3033C35.7261 30.0638 35.9417 39.3922 29.964 45.147C27.317 47.6974 24.1411 49.0204 20.4619 48.9998ZM20.5043 23.0909C14.0307 23.0703 8.70729 28.2817 8.72941 34.8329C8.75337 41.7383 14.0288 46.7229 20.307 46.8017C26.5336 46.8804 32.1243 41.995 32.1077 34.8929C32.0893 27.3634 25.9014 22.9335 20.5043 23.0909ZM7.41146 3.06615C6.46033 3.06615 5.5092 3.08676 4.55807 3.05865C3.88343 3.03991 3.63827 3.18608 4.01615 3.89817C7.1958 9.87786 10.3607 15.865 13.5164 21.8579C13.7763 22.3526 14.038 22.4369 14.5339 22.1895C15.9772 21.4662 17.5071 21.0464 19.1181 20.9115C20.237 20.8178 20.2775 20.7073 19.7356 19.6822C17.0758 14.6582 14.3754 9.65487 11.7837 4.5934C11.1718 3.39783 10.4731 2.84128 9.15705 3.05116C8.58748 3.14111 7.99394 3.06615 7.41146 3.06615ZM33.5289 3.06802C32.5464 3.06802 31.5658 3.08114 30.5833 3.0624C30.1317 3.05303 29.846 3.22356 29.6285 3.63395C27.0903 8.44244 24.541 13.2453 21.9955 18.0482C21.8314 18.3555 21.7061 18.6628 21.8738 19.0226C22.3992 20.147 22.825 21.3144 24.3567 21.4362C24.9724 21.4849 25.5972 21.8054 26.1558 22.1146C26.7935 22.4669 27.1014 22.3376 27.4313 21.6892C28.5723 19.4461 29.7723 17.233 30.9483 15.0087C32.8966 11.3283 34.8358 7.64602 36.797 3.97313C37.1472 3.31913 37.1214 3.01743 36.2864 3.05491C35.3721 3.09801 34.4505 3.06615 33.5289 3.06802Z" fill="white" stroke="white" stroke-width="0.3"/>
<path d="M20.3826 42.04C19.4923 42.0381 18.602 42.0456 17.7117 42.0362C16.9117 42.0288 16.4066 41.6146 16.379 40.7976C16.3403 39.5852 16.2352 38.3634 16.4785 37.1584C16.8583 35.2789 18.2241 34.0458 20.1135 33.8678C21.5254 33.7348 22.2517 33.062 22.2314 31.9077C22.2148 30.8433 21.5199 30.1087 20.4287 30.0638C19.5402 30.0263 18.6481 30.0563 17.7578 30.045C17.0315 30.0356 16.4288 29.7602 16.4325 28.9431C16.4361 28.128 17.0131 27.8544 17.7615 27.8675C18.6518 27.8825 19.5421 27.8619 20.4324 27.8731C22.6554 27.9012 24.3641 29.554 24.4802 31.7784C24.5908 33.8828 22.906 35.8036 20.7457 36.0359C18.9319 36.229 18.0656 37.6456 18.6333 39.4521C18.7771 39.9112 19.12 39.8587 19.4481 39.8606C20.6462 39.8681 21.8425 39.8775 23.0406 39.8606C23.7724 39.8513 24.3346 40.0649 24.4286 40.8875C24.5042 41.5565 23.9457 42.0175 23.0535 42.0381C22.165 42.0569 21.2729 42.04 20.3826 42.04Z" fill="white" stroke="white" stroke-width="0.3"/>
</svg>
