<svg width="51" height="51" viewBox="0 0 51 51" fill="none" xmlns="http://www.w3.org/2000/svg">
<path d="M26.1679 49.8977C21.8493 49.8977 17.5286 49.8722 13.2099 49.9174C12.2594 49.9272 11.9805 49.6287 11.9942 48.688C12.0532 45.0154 14.4983 41.4136 18.0196 39.9877C19.1096 39.5459 20.227 39.1668 21.3327 38.7662C22.0476 38.5069 22.5739 38.067 22.8253 37.3227C23.2711 36.001 23.061 35.6966 21.702 35.7496C19.8912 35.8203 18.7482 35.019 18.3397 33.277C18.2101 32.7232 17.9469 32.6387 17.4697 32.6034C11.5465 32.1654 7.20617 29.2666 4.30544 24.1211C3.73394 23.1097 3.27831 22.1101 3.33526 20.8944C3.37847 19.9831 2.85017 19.2211 2.34937 18.4827C1.52844 17.2709 0.960867 15.9865 1.00211 14.4645C1.0571 12.3513 1.94283 10.7507 3.73983 9.67249C4.23278 9.37594 4.60789 9.02439 4.9123 8.53341C8.99335 1.9346 17.0946 -0.740279 24.2786 2.16634C25.0956 2.49628 25.7634 2.51985 26.5921 2.18402C34.5834 -1.06433 43.6214 2.675 47.0563 10.6152C47.1997 10.9471 47.3136 11.3006 47.5964 11.5382C48.433 12.2374 48.9928 12.9346 48.2131 14.0835C47.8635 14.598 48.4173 14.9437 48.8749 15.0321C50.1201 15.2736 49.8176 16.2124 49.8687 17.0254C49.9197 17.8091 49.8431 18.4395 48.8926 18.6437C48.1502 18.8028 47.9205 19.3213 48.3584 19.9655C48.8651 20.7098 48.6157 21.2243 48.0029 21.7192C47.508 22.1179 47.2409 22.6698 46.9621 23.2374C44.0613 29.1704 39.3577 32.3834 32.7 32.6191C32.0578 32.6426 31.4332 32.568 30.7832 32.8567C29.0588 33.6266 29.4104 35.1054 29.4556 36.4664C29.4948 37.6723 30.1233 38.4618 31.3017 38.8408C32.3602 39.1806 33.4031 39.5714 34.4322 39.9897C37.981 41.4332 40.432 45.0861 40.4477 48.7979C40.4516 49.6699 40.1668 49.9193 39.3184 49.9115C34.9369 49.8781 30.5514 49.8958 26.1679 49.8977ZM12.1533 14.6039C12.2672 16.0454 11.5995 17.3515 10.7491 18.575C10.1128 19.4921 9.77696 20.4682 9.78285 21.5975C9.79071 23.0645 9.04638 24.0956 7.66573 24.5728C7.00978 24.7987 6.89783 24.9696 7.37114 25.5332C9.95175 28.6126 13.1726 30.4607 17.2203 30.7494C17.5659 30.773 18.0844 31.0911 18.2415 30.5471C18.3829 30.066 18.4183 29.5239 17.8389 29.1645C16.7705 28.5027 16.5643 27.4873 16.8118 26.3345C17.1064 24.9597 17.3774 23.5791 17.7427 22.224C17.9253 21.5445 17.778 21.1792 17.1987 20.7667C14.6514 18.954 14.404 15.5604 16.6173 13.3431C16.9689 12.9896 17.2556 12.638 17.4068 12.1392C18.3652 8.97529 20.2015 6.40254 22.7586 4.32667C22.9451 4.17544 23.2947 4.08903 23.1945 3.76105C23.1219 3.52145 22.8194 3.52931 22.6073 3.45861C17.2635 1.63608 10.8394 3.62358 7.35543 8.13669C6.85856 8.78086 7.06477 8.84567 7.72465 8.9969C10.4467 9.62339 12.1455 11.766 12.1533 14.6039ZM23.4165 13.7496C22.1301 13.838 20.7828 13.6161 19.4552 13.8773C17.9567 14.1719 16.9237 15.3816 16.908 16.8114C16.8923 18.2313 17.9273 19.4882 19.4159 19.775C20.8398 20.0499 22.2852 19.8751 23.7209 19.879C24.1078 19.879 24.4515 19.6689 24.4927 19.2584C24.5418 18.7773 24.1844 18.5161 23.7641 18.5063C22.8784 18.4827 23.0001 17.8817 23.0296 17.3338C23.0669 16.615 23.6305 16.776 24.0567 16.776C24.8384 16.7741 25.4413 17.1531 25.8537 17.7953C26.0972 18.1744 26.4134 18.3865 26.8239 18.5612C28.4343 19.2467 29.4065 20.4231 29.43 22.2377C29.4359 22.7326 29.5793 22.9781 30.0978 23.1294C31.5079 23.5398 32.4093 24.4727 32.5625 25.9771C32.7294 27.611 31.9576 28.7285 30.5259 29.4454C30.2352 29.5907 29.9151 29.7183 29.6794 29.9304C29.2827 30.284 29.3083 30.8692 29.5145 31.2031C29.7875 31.6489 30.1174 31.1265 30.3747 30.9674C30.956 30.6041 31.5118 30.1975 32.0617 29.7851C34.8839 27.6641 36.1565 23.8815 35.2256 20.4132C34.2947 16.9508 31.3606 14.3938 27.8785 13.9126C26.4016 13.7044 24.9346 13.8183 23.4165 13.7496ZM23.7052 29.3354C24.6832 29.304 24.858 29.5455 24.5654 30.4489C24.094 31.8983 22.9648 32.5818 21.0185 32.623C20.7161 32.6289 20.2467 32.4482 20.1524 32.839C20.0444 33.2848 20.3999 33.6187 20.8005 33.8328C21.103 33.9938 21.4113 33.9997 21.7491 33.9388C22.9373 33.7248 24.1353 33.5618 25.3215 33.3339C26.0226 33.2004 26.2327 33.5166 26.3545 34.1392C26.4802 34.7833 26.2622 35.0661 25.6514 35.1388C25.3313 35.1761 24.8855 35.1525 24.8226 35.5237C24.697 36.2916 24.6164 37.0811 24.6557 37.8569C24.6812 38.393 25.3097 38.5344 25.6652 38.8526C25.9539 39.1118 26.3133 39.2572 26.6334 38.9508C27.0537 38.5482 27.8589 38.45 27.798 37.6467C27.6389 35.5571 27.8766 33.4557 27.6919 31.3779C27.5289 29.5632 27.908 28.2533 29.8346 27.7623C29.8955 27.7466 29.9505 27.7034 30.0074 27.67C30.5907 27.3086 30.8833 26.7744 30.7851 26.1027C30.685 25.4232 30.2372 24.9971 29.5675 24.8498C29.2533 24.781 28.9174 24.7535 28.5954 24.7692C27.9748 24.8007 27.6821 24.5611 27.7214 23.9189C27.7469 23.4966 27.7352 23.0685 27.7155 22.6443C27.6802 21.8724 27.4975 21.1576 26.875 20.6273C26.5057 20.3131 26.1778 20.1893 25.8164 20.6823C25.2665 21.4325 24.479 21.6564 23.5697 21.6289C22.5248 21.5975 21.4781 21.6289 20.4313 21.6211C19.9953 21.6191 19.6889 21.7192 19.5848 22.224C19.2667 23.7578 18.9191 25.2877 18.5734 26.8157C18.4693 27.2811 18.6225 27.6955 19.0762 27.6994C20.0797 27.7073 20.0385 28.3338 20.0149 29.0172C20.0012 29.4414 20.0169 29.8676 20.0169 30.2918C20.0169 30.6257 20.1406 30.828 20.5059 30.9026C21.4604 31.0951 22.3775 30.7474 22.841 29.8971C23.0571 29.4925 23.3006 29.2765 23.7052 29.3354ZM45.3536 11.4145C45.277 11.1553 45.2495 10.9981 45.1886 10.8567C42.4863 4.64286 34.6384 1.22955 28.2301 3.48021C28.0199 3.55484 27.7136 3.55484 27.6684 3.80426C27.6134 4.1126 27.9433 4.21669 28.1378 4.37184C31.229 6.83854 33.2008 10.0024 33.8823 13.8949C34.0845 15.0537 34.7268 15.7823 35.5005 16.6071C35.64 15.4229 35.64 15.4229 36.404 15.1145C37.4409 14.6943 37.5155 14.5686 36.9892 13.5238C36.7044 12.9581 36.7476 12.5516 37.2327 12.1549C37.5096 11.929 37.7708 11.6718 37.9947 11.3929C38.4091 10.8764 38.8608 10.7487 39.4343 11.1297C40.269 11.6836 40.7757 11.3929 40.9937 10.4777C41.141 9.85513 41.5259 9.63517 42.1406 9.6882C42.5295 9.72159 42.9281 9.72355 43.317 9.6882C43.9415 9.63125 44.2891 9.88852 44.462 10.4914C44.57 10.8725 44.6407 11.3438 45.3536 11.4145ZM31.7848 13.3706C31.8084 13.076 31.8437 12.9739 31.8182 12.8914C30.8146 9.58018 28.8919 6.95441 25.9912 5.0435C25.51 4.72534 25.1683 4.853 24.7559 5.12795C22.5838 6.57537 20.9439 8.48038 19.8284 10.8371C19.2863 11.9821 19.3315 12.0449 20.6316 12.0469C21.154 12.0469 21.6764 12.0312 22.1988 12.0488C25.404 12.1549 28.6955 11.5264 31.7848 13.3706ZM33.7841 48.1813C35.0587 48.1813 36.3352 48.1498 37.6098 48.1931C38.4366 48.2206 38.6546 47.9142 38.4425 47.1345C37.6687 44.2986 35.8894 42.4191 33.1458 41.4018C32.6293 41.2113 32.2817 41.3075 31.9556 41.7298C31.3174 42.5585 30.6477 43.3637 30.0055 44.1906C29.6853 44.601 29.379 44.8701 28.9057 44.3732C28.7368 44.1965 28.5325 43.9333 28.2477 44.1925C28.0297 44.3928 28.0631 44.6599 28.1535 44.9251C28.4363 45.7617 28.7407 46.5905 28.9823 47.4389C29.1472 48.0163 29.4811 48.2029 30.0565 48.1891C31.2977 48.1616 32.5409 48.1813 33.7841 48.1813ZM18.5204 48.1813C19.8284 48.1813 21.1363 48.1754 22.4443 48.1852C22.8646 48.1891 23.2279 48.1341 23.3831 47.6667C23.6895 46.7358 24.0017 45.8049 24.3101 44.874C24.3984 44.6089 24.4004 44.3418 24.1588 44.1591C23.9016 43.9647 23.7209 44.1886 23.5755 44.3457C23.0708 44.8937 22.7507 44.5892 22.409 44.1474C21.7903 43.3441 21.1462 42.5605 20.5177 41.7671C20.2369 41.4136 19.9541 41.1759 19.4375 41.3605C16.5722 42.3798 14.7162 44.3182 13.968 47.2838C13.8109 47.9063 14.0112 48.2029 14.6946 48.1891C15.9692 48.1616 17.2458 48.1813 18.5204 48.1813ZM45.9369 20.5291C46.5752 20.7235 46.4848 20.3504 46.4023 19.9556C46.1529 18.7576 46.5536 17.8189 47.6043 17.2101C48.1659 16.884 48.0501 16.7289 47.5787 16.4461C46.5378 15.8196 46.1392 14.8769 46.4082 13.6868C46.5123 13.2272 46.4927 12.9955 45.9153 13.131C44.6426 13.4315 43.6705 12.9896 43.0322 11.8485C42.7514 11.3497 42.5825 11.5539 42.3743 11.9074C41.7341 12.9955 40.7855 13.4216 39.5521 13.1369C39.0415 13.019 38.9001 13.131 39.0238 13.6593C39.3106 14.8887 38.8923 15.851 37.8003 16.4814C37.3034 16.7682 37.3663 16.9292 37.818 17.1943C38.8667 17.8071 39.2968 18.7321 39.0415 19.9301C38.9374 20.4191 38.9315 20.6803 39.5757 20.5291C40.8051 20.2404 41.7576 20.6823 42.3861 21.7782C42.6159 22.1768 42.7926 22.2534 43.0479 21.7998C43.6882 20.6568 44.6682 20.2522 45.9369 20.5291ZM33.8194 30.661C38.9276 30.6119 44.407 25.9692 45.22 22.2593C44.788 22.3399 44.5936 22.6384 44.5071 22.9919C44.2558 24.0308 43.4663 23.9719 42.6552 23.9856C41.844 23.9994 41.1567 23.9306 40.9053 22.9781C40.7285 22.3104 40.2749 22.0315 39.6523 22.442C38.8981 22.9389 38.3306 22.7857 37.8141 22.1042C37.7119 21.9706 37.5882 21.7546 37.2858 21.9156C37.5175 25.2857 36.3333 28.1551 33.8194 30.661ZM5.67234 18.5475C5.82945 17.4536 5.65663 16.7662 4.85142 16.1456C3.83999 15.364 3.89891 13.7476 4.78464 12.7991C5.69591 11.823 7.25134 11.7582 8.23527 12.6557C9.18974 13.5257 9.43523 15.2343 8.44541 15.9826C7.22188 16.9057 7.45755 18.0487 7.44774 19.2172C7.44577 19.4686 7.40453 19.7867 7.76196 19.8398C8.09583 19.8889 8.17439 19.5982 8.29026 19.3625C8.53772 18.8676 8.76553 18.357 9.06209 17.8915C9.62574 17.0078 10.1913 16.1476 10.3504 15.0674C10.5625 13.6239 9.91247 12.0842 8.6202 11.279C7.27491 10.4424 5.90016 10.4404 4.5529 11.2751C3.25867 12.0783 2.62039 13.6161 2.81089 15.0596C2.9955 16.4677 3.90676 17.483 4.57647 18.628C4.82196 19.0483 4.77482 19.9223 5.38953 19.7926C6.09459 19.6473 5.55058 18.8303 5.67234 18.5475ZM26.1385 45.1116C25.8478 45.9601 25.6809 46.5885 25.4177 47.1738C25.0249 48.0477 25.3588 48.2795 26.1895 48.1852C26.382 48.1636 26.5784 48.1793 26.7728 48.1773C27.091 48.1754 27.2952 48.0556 27.1735 47.706C26.8966 46.9008 26.765 46.0327 26.1385 45.1116ZM24.638 40.408C24.3454 40.0958 23.9428 39.5459 23.5284 39.6932C22.9844 39.8876 22.081 40.0683 22.083 40.7144C22.0849 41.1524 22.568 41.8574 23.281 41.9458C23.5147 41.9752 24.6675 40.6732 24.638 40.408ZM30.518 40.573C30.0978 40.3216 29.6677 40.1056 29.2867 39.8247C28.6346 39.3436 28.3243 39.9622 27.9708 40.249C27.5073 40.6221 28.0337 40.8499 28.2242 41.1033C28.34 41.2584 28.4854 41.3998 28.6386 41.5176C28.8782 41.7023 29.053 42.1559 29.43 41.9065C29.8916 41.6001 30.1842 41.1091 30.518 40.573ZM6.66609 21.6171C6.50308 21.6171 6.33222 21.5877 6.17707 21.623C5.86284 21.6957 5.35418 21.3893 5.26777 21.8842C5.18725 22.3438 5.59575 22.6364 5.98853 22.8328C6.1594 22.9192 6.35972 22.9781 6.55022 22.9899C7.13547 23.0253 8.01924 22.3811 7.90729 21.953C7.74036 21.3186 7.15118 21.735 6.76625 21.6171C6.73483 21.6093 6.69948 21.6171 6.66609 21.6171Z" fill="white" stroke="white" stroke-width="0.4"/>
<path d="M22.2851 26.3245C20.8515 26.3206 19.8184 25.2482 19.8695 23.8362C19.8852 23.4061 19.9402 23.0329 20.4901 23.0585C20.9398 23.0801 21.527 22.8581 21.584 23.6457C21.6154 24.0993 21.7804 24.5314 22.3067 24.5236C22.8311 24.5157 22.9804 24.0758 23.0118 23.626C23.0609 22.9072 23.597 23.0781 24.0252 23.0526C24.524 23.0211 24.6968 23.2765 24.7263 23.7576C24.8147 25.1972 23.7561 26.3284 22.2851 26.3245Z" fill="white" stroke="white" stroke-width="0.4"/>
<path d="M42.7061 19.2565C41.3 19.2506 40.3003 18.251 40.2964 16.8448C40.2925 15.3974 41.3255 14.384 42.7827 14.4095C44.1752 14.4331 45.1571 15.4583 45.1434 16.8723C45.1277 18.2745 44.1202 19.2604 42.7061 19.2565Z" fill="white" stroke="white" stroke-width="0.4"/>
</svg>
