<svg width="52" height="48" viewBox="0 0 52 48" fill="none" xmlns="http://www.w3.org/2000/svg">
<path d="M25.9399 47.9958C18.192 47.9958 10.442 47.998 2.69404 47.9958C0.498384 47.9958 -0.113191 47.1262 0.524451 44.8836C1.7075 40.7232 2.90057 36.5671 4.09966 32.4154C4.56686 30.8005 4.98995 30.4757 6.56802 30.4714C8.30449 30.4648 10.043 30.4321 11.7774 30.4866C12.5594 30.5106 12.8963 30.1706 13.1149 29.3882C14.1435 25.7094 15.2123 22.0437 16.279 18.3758C16.7222 16.8524 17.1192 16.5298 18.593 16.5277C23.5357 16.5189 28.4805 16.5189 33.4232 16.5277C34.8829 16.5298 35.28 16.8589 35.7251 18.3932C36.7818 22.0262 37.8486 25.6549 38.8572 29.3032C39.1018 30.1859 39.4848 30.5215 40.337 30.491C42.1055 30.4278 43.8761 30.4627 45.6467 30.4779C46.956 30.4888 47.4453 30.868 47.8403 32.2301C49.0735 36.4865 50.2946 40.7472 51.5058 45.0122C52.0893 47.0674 51.4576 47.998 49.4866 48.0002C41.6383 48.0002 33.7881 47.9958 25.9399 47.9958ZM13.8006 44.4151C16.8024 44.4151 19.8061 44.3976 22.8078 44.4282C23.5698 44.4347 23.7242 44.1732 23.4976 43.4017C22.6715 40.6077 21.8714 37.8028 21.0934 34.9936C20.8969 34.2809 20.54 34.0347 19.8643 34.039C15.894 34.0652 11.9238 34.0652 7.95559 34.039C7.26782 34.0347 6.94699 34.3136 6.75049 35.0197C5.97048 37.829 5.16641 40.6317 4.32223 43.4191C4.08161 44.2146 4.22999 44.4369 4.99396 44.4303C7.92952 44.3976 10.8651 44.4151 13.8006 44.4151ZM38.1153 44.4151C41.0849 44.4151 44.0526 44.402 47.0222 44.4238C47.6779 44.4282 47.9406 44.2996 47.7 43.4997C46.8478 40.6774 46.0337 37.8399 45.2356 34.998C45.0551 34.355 44.7824 34.0347 44.1207 34.039C40.0843 34.063 36.0479 34.0608 32.0115 34.0412C31.41 34.039 31.1032 34.3006 30.9328 34.9108C30.1347 37.7527 29.3326 40.5946 28.4945 43.4213C28.2519 44.2386 28.4905 44.4325 29.2123 44.426C32.176 44.3998 35.1456 44.4151 38.1153 44.4151ZM25.8938 30.467C28.8654 30.467 31.8391 30.4539 34.8108 30.4779C35.5166 30.4844 35.7873 30.3188 35.5386 29.4819C34.6965 26.6509 33.8944 23.8068 33.0963 20.9627C32.9239 20.3503 32.6131 20.0931 32.0136 20.0953C28.0052 20.1127 23.9989 20.1127 19.9906 20.0953C19.393 20.0931 19.0762 20.3372 18.9018 20.954C18.1037 23.8003 17.3017 26.6444 16.4595 29.4732C16.2169 30.2927 16.4555 30.4844 17.1773 30.4779C20.0828 30.4518 22.9883 30.467 25.8938 30.467ZM25.8757 39.8536C25.962 39.8427 26.0502 39.8318 26.1364 39.8209C26.6177 38.1297 27.0929 36.4342 27.5801 34.7451C27.7185 34.2679 27.5641 34.0565 27.1189 34.0565C26.353 34.0565 25.585 34.0543 24.819 34.063C24.418 34.0674 24.2917 34.2897 24.41 34.7037C24.8992 36.4189 25.3865 38.1363 25.8757 39.8536Z" fill="white"/>
<path d="M24.3609 4.60608C24.3609 3.70164 24.3228 2.79719 24.3709 1.89493C24.4331 0.707163 25.1208 -0.0316488 26.0412 0.00104199C26.9335 0.0315534 27.5872 0.737674 27.6173 1.88403C27.6674 3.72561 27.6674 5.57155 27.6193 7.41531C27.5892 8.54424 26.9175 9.2242 26.0011 9.22638C25.0827 9.22856 24.4291 8.55077 24.3709 7.42621C24.3208 6.4869 24.3609 5.5454 24.3609 4.60608Z" fill="white"/>
<path d="M37.127 4.9657C37.6183 4.98968 38.0895 5.28607 38.3822 5.88104C38.699 6.51961 38.695 7.21047 38.2499 7.71827C36.9164 9.24166 35.563 10.7542 34.1333 12.1686C33.5357 12.7592 32.7297 12.6568 32.1281 12.0138C31.5005 11.3448 31.3541 10.4796 31.9637 9.76471C33.255 8.24786 34.6286 6.81164 35.9861 5.36235C36.2507 5.08121 36.6157 4.95916 37.127 4.9657Z" fill="white"/>
<path d="M14.9242 4.9635C15.4536 4.9635 15.8506 5.15311 16.1674 5.49527C17.4266 6.84649 18.6959 8.18681 19.913 9.5838C20.5707 10.34 20.5346 11.2532 19.9451 11.9397C19.3556 12.6284 18.361 12.7308 17.6953 12.0465C16.386 10.6996 15.1227 9.30048 13.8655 7.89477C13.3842 7.35647 13.2719 6.68304 13.5707 5.98127C13.8494 5.32746 14.3347 4.99401 14.9242 4.9635Z" fill="white"/>
</svg>
