<svg width="35" height="49" viewBox="0 0 35 49" fill="none" xmlns="http://www.w3.org/2000/svg">
<path d="M0 24.1615C0 17.9044 0 11.6661 0 5.409C0 2.09198 2.08625 0 5.44323 0C11.9485 0 18.4728 0 24.9781 0C28.4489 0 30.4783 2.03544 30.4972 5.52208C30.4972 14.3235 30.5162 23.1061 30.4783 31.9075C30.4783 32.8498 30.6679 33.2267 31.7111 33.2079C33.2852 33.189 34.556 34.5083 34.5939 36.261C34.6697 39.8419 34.6318 43.4228 34.6129 47.0037C34.6129 47.7198 34.3473 48.3606 33.4939 48.3606C32.5835 48.3606 32.3369 47.701 32.3369 46.9471C32.318 43.9693 32.318 40.9727 32.318 37.9949C32.318 37.5615 32.318 37.1091 32.318 36.6757C32.318 36.0349 32.2611 35.3752 31.4266 35.4129C30.649 35.4506 30.5352 36.0914 30.5162 36.7134C30.4972 37.2222 30.5162 37.7122 30.4972 38.2211C30.4783 38.8807 30.1369 39.2954 29.4541 39.3142C28.7713 39.3331 28.3731 38.9184 28.3351 38.2776C28.2782 37.373 28.3162 36.4495 28.2972 35.5449C28.2972 34.9606 28.1455 34.4518 27.4437 34.4329C26.6661 34.4141 26.5334 34.9606 26.5144 35.5826C26.5144 36.393 26.5144 37.2222 26.4954 38.0326C26.4765 38.7865 26.154 39.3331 25.3195 39.3142C24.504 39.2954 24.2954 38.7111 24.2954 38.0138C24.2954 36.9207 24.2954 35.8087 24.2954 34.7156C24.2954 34.0748 24.1626 33.434 23.385 33.4152C22.5695 33.4152 22.4936 34.0748 22.5126 34.6968C22.5126 35.5072 22.5126 36.3364 22.5126 37.1468C22.5126 38.73 22.1902 39.3331 21.3177 39.3142C20.5022 39.2954 20.1798 38.7111 20.1798 37.1845C20.1798 34.1314 20.1798 31.097 20.1798 28.0439C20.1798 27.7235 20.1798 27.4219 20.1418 27.1016C20.1039 26.6681 19.8384 26.4231 19.4211 26.3477C18.9849 26.2723 18.7004 26.5173 18.5108 26.8754C18.3211 27.2335 18.359 27.6104 18.359 27.9873C18.359 31.8886 18.359 35.771 18.359 39.6723C18.359 41.2743 17.828 41.6324 16.2917 41.1235C15.3245 40.8031 14.3762 40.4639 13.4089 40.1623C12.8589 39.9927 12.2141 39.5592 11.7968 40.2942C11.3796 41.0481 12.0813 41.425 12.5365 41.8208C14.0917 43.1401 15.6848 44.4405 17.2211 45.7975C17.7711 46.2875 18.6435 46.7587 18.2642 47.7198C17.8849 48.681 16.9176 48.3795 16.178 48.3795C12.5365 48.3983 8.91399 48.3983 5.27253 48.3795C2.12419 48.3795 0 46.2498 0 43.1024C0 36.7887 0 30.4751 0 24.1615ZM2.21902 24.1049C2.21902 29.0993 2.23798 34.0937 2.20005 39.088C2.20005 39.8985 2.40868 40.2 3.26214 40.1812C5.02598 40.1246 6.80877 40.1435 8.57261 40.1623C9.10365 40.1623 9.40711 40.0304 9.65367 39.4838C10.3554 37.9007 11.7779 37.2976 13.4848 37.8065C14.0917 37.9949 14.6986 38.1834 15.2866 38.4096C15.9504 38.6734 16.178 38.485 16.178 37.7688C16.159 35.3564 16.1211 32.9252 16.1969 30.5128C16.2159 29.5516 15.9314 29.2689 14.9641 29.2878C12.4986 29.3443 10.033 29.3066 7.56741 29.3066C6.84671 29.3066 6.22083 29.1181 6.126 28.27C6.03117 27.535 6.52428 27.1204 7.49155 27.1204C10.0899 27.1015 12.6693 27.1015 15.2676 27.1204C15.7986 27.1204 16.1211 27.0073 16.3107 26.4419C16.8987 24.6892 18.2263 23.8788 19.9332 24.1426C21.4126 24.3688 22.4557 25.688 22.5126 27.4219C22.5505 28.4208 22.5315 29.4385 22.5126 30.4374C22.4936 30.9463 22.6264 31.2101 23.2143 31.1347C23.8023 31.0594 24.4092 31.1724 24.8454 31.5305C25.623 32.1525 26.3627 32.3032 27.4058 32.1902C28.2593 32.0959 28.3541 31.8509 28.3541 31.1536C28.3351 23.8976 28.3351 16.6416 28.3541 9.4045C28.3541 8.49986 28.0886 8.23601 27.1782 8.23601C19.2884 8.2737 11.3796 8.2737 3.48973 8.23601C2.54144 8.23601 2.23798 8.48101 2.25695 9.44219C2.23798 14.3235 2.21902 19.2236 2.21902 24.1049ZM15.2486 6.03094C19.2694 6.03094 23.2712 6.0121 27.292 6.04979C28.1075 6.04979 28.3351 5.76709 28.2782 4.99437C28.1834 3.37356 26.9506 2.20506 25.2057 2.18622C21.185 2.16737 17.1831 2.18622 13.1624 2.18622C10.5071 2.18622 7.8519 2.16737 5.19667 2.18622C3.5656 2.20506 2.35178 3.35471 2.21902 4.88129C2.14315 5.7294 2.38971 6.03094 3.30007 6.03094C7.28292 6.0121 11.2658 6.03094 15.2486 6.03094ZM14.1486 46.1933C12.6313 44.874 11.3037 43.6866 9.95712 42.5182C9.78643 42.3674 9.55884 42.3674 9.33124 42.3485C7.18809 42.3485 5.04494 42.3485 2.90179 42.3485C2.35178 42.3485 2.21902 42.6124 2.20005 43.1024C2.14315 44.7798 3.37594 46.1367 5.08287 46.1744C6.41049 46.2121 7.73811 46.1933 9.04676 46.1933C10.6968 46.1933 12.3089 46.1933 14.1486 46.1933Z" fill="white"/>
<path d="M23.3093 21.2402C22.8541 21.2402 22.5507 20.9764 22.2852 20.6371C21.7541 19.9398 21.2041 19.2425 20.692 18.5263C20.4075 18.1305 20.1989 18.1493 19.9144 18.5263C19.4403 19.1859 18.9282 19.8267 18.4351 20.4675C17.8282 21.2591 17.1833 21.4475 16.6143 21.014C16.0264 20.5617 16.0454 19.9775 16.6712 19.1294C17.2213 18.3944 17.7333 17.6405 18.3213 16.962C18.7954 16.4155 18.8144 15.982 18.3402 15.4166C17.6954 14.6439 17.1264 13.8146 16.5195 13.023C16.0454 12.4011 15.9885 11.7792 16.6523 11.2891C17.2971 10.818 17.8471 11.1195 18.2834 11.6661C18.7006 12.1749 19.0989 12.7027 19.4972 13.2304C20.3127 14.3046 20.3127 14.3046 21.1662 13.1927C21.5455 12.6838 21.9248 12.1938 22.3041 11.6849C22.7593 11.0818 23.3473 10.7991 24.0111 11.3268C24.618 11.8169 24.5231 12.42 24.1059 13.0042C23.48 13.8711 22.8541 14.7381 22.1714 15.5673C21.811 16.0197 21.7921 16.3589 22.1714 16.8112C22.8541 17.6593 23.499 18.564 24.1628 19.4498C24.4663 19.8644 24.5611 20.3167 24.2956 20.769C24.049 21.0894 23.7266 21.2402 23.3093 21.2402Z" fill="white"/>
<path d="M6.06885 14.9265C6.06885 14.0407 6.06885 13.1737 6.06885 12.288C6.06885 11.5906 6.39127 11.1006 7.09301 11.0629C7.87061 11.0252 8.23097 11.5529 8.24993 12.2691C8.28786 13.8145 8.24993 15.3411 8.2689 16.8865C8.28786 18.1681 9.02754 19.0351 10.1276 19.0539C11.2466 19.0728 12.0621 18.2624 12.1 16.9808C12.1379 15.5107 12.119 14.0407 12.119 12.5518C12.119 11.7791 12.2897 11.1572 13.1811 11.0629C13.8449 10.9875 14.319 11.5718 14.319 12.4953C14.338 14.0972 14.357 15.6992 14.319 17.3012C14.2432 19.6193 12.3845 21.2967 10.0327 21.259C7.79475 21.2213 6.08781 19.4874 6.06885 17.2069C6.06885 16.4342 6.06885 15.6804 6.06885 14.9265Z" fill="white"/>
<path d="M10.1279 25.3488C9.2365 25.3488 8.36407 25.3677 7.47267 25.3488C6.75196 25.33 6.12609 25.085 6.10712 24.2369C6.08816 23.3888 6.69507 23.0872 7.41577 23.0684C9.27443 23.0307 11.1521 23.0495 13.0107 23.0684C13.7125 23.0872 14.2814 23.4076 14.3004 24.1803C14.3194 25.0096 13.7125 25.33 12.9728 25.3488C12.0245 25.3677 11.0762 25.3488 10.1279 25.3488Z" fill="white"/>
<path d="M9.14157 33.3023C8.47776 33.3023 7.81395 33.3211 7.15015 33.3023C6.52427 33.2834 6.12598 32.963 6.08805 32.3222C6.05012 31.6437 6.42944 31.1914 7.05532 31.1537C8.43983 31.0972 9.82434 31.0972 11.2089 31.1537C11.8537 31.1726 12.252 31.6061 12.233 32.2845C12.2141 32.963 11.7778 33.2834 11.114 33.3023C10.4692 33.3211 9.80538 33.3023 9.14157 33.3023Z" fill="white"/>
</svg>
