<svg width="48" height="48" viewBox="0 0 48 48" fill="none" xmlns="http://www.w3.org/2000/svg">
<path d="M24.4918 47.991C22.7844 47.991 21.0586 47.991 19.3511 47.991C18.2128 47.991 17.9374 47.7156 17.9191 46.5957C17.9007 45.3656 17.9007 44.1539 17.9191 42.9238C17.9374 42.3913 17.7722 42.0425 17.2948 41.712C15.771 40.6655 15.569 38.6276 16.9276 37.3608C17.4417 36.865 17.405 36.4979 17.1847 35.9471C16.2667 33.6154 15.4221 31.247 14.5041 28.9153C14.192 28.1075 14.2471 27.4282 14.6694 26.657C17.5335 21.498 20.3425 16.3022 23.1699 11.1247C23.4453 10.629 23.6656 10.0415 24.4 10.0415C25.1344 10.0415 25.3364 10.629 25.6118 11.1431C28.4942 16.394 31.3584 21.6632 34.2408 26.9141C34.608 27.5934 34.5346 28.1809 34.2776 28.8419C33.3596 31.247 32.4599 33.6521 31.542 36.0389C31.34 36.5529 31.3216 36.865 31.799 37.3057C33.1943 38.6092 33.0291 40.6288 31.4502 41.7304C31.0095 42.0241 30.8443 42.3546 30.8627 42.8503C30.881 44.1355 30.881 45.4207 30.8627 46.7059C30.8443 47.6606 30.5505 47.9727 29.5958 47.9727C27.9067 47.991 26.1993 47.9727 24.4918 47.991ZM25.5567 15.2373C25.5016 15.2373 25.4465 15.2557 25.4098 15.2557C25.4098 18.3401 25.4098 21.4245 25.4098 24.509C25.4098 24.9863 25.6485 25.2066 25.9973 25.4453C27.0989 26.2164 27.5212 27.4282 27.1356 28.6583C26.7684 29.7966 25.6301 30.6595 24.4368 30.6595C23.2434 30.6595 22.0867 29.8149 21.7195 28.6766C21.334 27.4465 21.7195 26.1981 22.8395 25.4637C23.3168 25.1515 23.4453 24.7844 23.4453 24.2519C23.427 22.6913 23.4453 21.1308 23.4453 19.5702C23.4453 18.1198 23.4453 16.6694 23.4453 15.2373C21.4808 18.5421 19.6632 21.8652 17.8456 25.1883C17.0561 26.6387 17.0745 26.6387 18.6534 26.7672C18.6902 26.7672 18.7085 26.7672 18.7452 26.7672C19.3878 26.8406 19.8835 27.0977 19.8652 27.8321C19.8468 28.5114 19.3878 28.7868 18.7636 28.8419C18.3413 28.8786 17.9007 28.8786 17.4784 28.8602C16.9093 28.8419 16.7808 29.0438 16.9827 29.5762C17.7905 31.6509 18.5616 33.7439 19.3511 35.8369C19.498 36.2592 19.755 36.4979 20.2324 36.4979C23.0231 36.4979 25.7954 36.4979 28.5861 36.4979C29.0083 36.4979 29.2837 36.351 29.4306 35.9471C30.2384 33.799 31.0462 31.6509 31.8541 29.5028C32.056 28.9704 31.8357 28.8602 31.3584 28.8602C30.8443 28.8602 30.3119 28.8786 29.7978 28.8051C29.3021 28.7317 28.9716 28.4012 28.9532 27.8688C28.9349 27.2813 29.2654 26.9324 29.7978 26.8406C30.2201 26.7672 30.6423 26.7672 31.083 26.7856C31.6888 26.8223 31.7806 26.6387 31.4869 26.1063C29.504 22.4894 27.5212 18.8542 25.5567 15.2373ZM24.4 46.0082C24.9875 46.0082 25.5567 46.0082 26.1442 46.0082C29.045 46.0082 29.0267 46.0082 28.9532 43.1073C28.9349 42.4648 28.7146 42.2444 28.0903 42.2628C26.2911 42.2812 24.4918 42.2628 22.6926 42.2628C19.7183 42.2628 19.7367 42.2628 19.8835 45.2738C19.9203 45.8246 20.1039 46.0265 20.6547 46.0265C21.8848 45.9898 23.1516 46.0082 24.4 46.0082ZM24.4 40.1698C26.0708 40.1698 27.7599 40.1698 29.4306 40.1698C30.0181 40.1698 30.6423 40.1147 30.6423 39.3803C30.6423 38.6459 30.0181 38.5909 29.4306 38.5909C26.0708 38.5909 22.7109 38.5909 19.3511 38.5909C18.7636 38.5909 18.1394 38.6459 18.1394 39.3803C18.1394 40.1147 18.7636 40.1698 19.3511 40.1698C21.0586 40.1698 22.7293 40.1698 24.4 40.1698Z" fill="white"/>
<path d="M14.6507 4.66194C12.1171 4.66194 9.5651 4.6803 7.03146 4.64358C6.40723 4.64358 6.20527 5.01077 5.89316 5.39633C5.14041 6.36939 3.91031 6.73659 2.77201 6.35103C1.59699 5.96548 0.844238 4.91898 0.844238 3.65216C0.844238 2.42205 1.57863 1.41227 2.73529 1.00836C3.91031 0.604443 5.19549 0.953278 5.91152 1.99978C6.29707 2.56893 6.71935 2.71581 7.34358 2.69745C11.7499 2.67909 16.1562 2.67909 20.5626 2.69745C21.1868 2.69745 21.6274 2.66073 21.6091 1.83454C21.5907 1.17359 22.0497 0.861479 22.6923 0.861479C23.8306 0.861479 24.9505 0.861479 26.0888 0.861479C26.7865 0.861479 27.2271 1.21031 27.2088 1.90798C27.1904 2.60565 27.5576 2.69745 28.1268 2.69745C32.6616 2.67909 37.1781 2.67909 41.713 2.69745C42.1903 2.69745 42.4841 2.56893 42.7778 2.16502C43.604 0.989997 44.8341 0.586083 46.0642 1.00836C47.2209 1.41227 47.9553 2.42205 47.9736 3.65216C47.992 4.91898 47.2392 5.98384 46.0642 6.38775C44.8341 6.81003 43.6224 6.38775 42.7778 5.23109C42.5942 4.99241 42.4657 4.69866 42.0985 4.69866C39.4547 4.69866 36.8109 4.69866 33.8734 4.69866C35.5808 5.57993 37.0312 6.35103 38.2981 7.4159C38.6652 7.70965 39.0141 8.02177 38.959 8.5542C38.8856 9.36203 38.0594 9.6925 37.2883 9.19679C36.5172 8.70108 35.8011 8.11356 35.0117 7.63621C32.9187 6.38775 30.6421 5.59828 28.2553 5.10257C27.6861 4.99241 27.2455 4.97405 27.1721 5.76352C27.117 6.27759 26.6764 6.51627 26.1623 6.51627C25.0056 6.51627 23.8306 6.51627 22.6739 6.51627C22.1231 6.51627 21.6825 6.25923 21.6274 5.69008C21.554 4.91898 21.095 4.99241 20.5809 5.10257C17.4965 5.70844 14.614 6.82839 12.0804 8.77451C11.9151 8.90303 11.7499 9.03155 11.5663 9.16007C11.0522 9.49054 10.5198 9.58234 10.0975 9.03155C9.6569 8.4624 9.85886 7.92997 10.3729 7.5077C11.4562 6.60807 12.6495 5.85532 13.9164 5.21273C14.1917 5.08421 14.4488 4.93734 14.7058 4.79046C14.6875 4.75374 14.6691 4.69866 14.6507 4.66194ZM24.2529 4.51506C24.7853 4.53342 25.2994 4.60686 25.281 3.81739C25.2627 3.2666 25.3361 2.75253 24.5099 2.80761C23.9775 2.84433 23.5185 2.80761 23.5736 3.56036C23.5919 4.05607 23.5001 4.60686 24.2529 4.51506Z" fill="white"/>
<path d="M3.63491 26.6752C3.08412 26.6752 2.53333 26.6752 1.98254 26.6752C1.22979 26.6752 0.844238 26.2897 0.844238 25.5369C0.844238 24.4354 0.844238 23.3338 0.844238 22.2322C0.844238 21.4427 1.21143 21.0021 2.01926 21.0388C2.64349 21.0755 2.86381 20.8185 2.95561 20.2126C3.3228 17.9727 4.07555 15.8246 5.15877 13.8234C5.58104 13.0523 6.16855 12.832 6.71935 13.2176C7.3803 13.6582 7.25178 14.2457 6.93966 14.8332C6.13184 16.4122 5.48925 18.0645 5.14041 19.8271C5.01189 20.4697 4.80994 21.0388 5.81972 21.1122C6.27871 21.149 6.48067 21.608 6.48067 22.0853C6.48067 23.242 6.49903 24.417 6.48067 25.5737C6.48067 26.2713 6.09512 26.6385 5.39745 26.6569C4.80994 26.6936 4.22243 26.6752 3.63491 26.6752ZM4.49782 23.8111C4.6447 23.1685 4.29586 23.0217 3.68999 23.0033C2.99232 22.9849 2.80873 23.2603 2.80873 23.9213C2.80873 24.6006 3.12084 24.7291 3.70835 24.7291C4.35094 24.7475 4.60798 24.4904 4.49782 23.8111Z" fill="white"/>
<path d="M45.1275 26.6755C44.54 26.6755 43.9708 26.6939 43.3833 26.6755C42.7224 26.6572 42.3552 26.29 42.3552 25.629C42.3368 24.4356 42.3368 23.2423 42.3552 22.0489C42.3552 21.5348 42.6306 21.1309 43.163 21.0758C43.9158 21.0024 43.8607 20.5801 43.7505 20.0477C43.4384 18.4504 42.9243 16.9265 42.2083 15.4577C42.0798 15.1823 41.9329 14.907 41.8044 14.6316C41.5106 14.0073 41.6024 13.4749 42.2634 13.1628C42.8876 12.869 43.3282 13.1811 43.622 13.7319C44.6501 15.5863 45.3845 17.5691 45.7701 19.6621C45.917 20.4883 46.0271 21.186 47.1654 21.0942C47.7162 21.0575 47.9916 21.5532 47.9916 22.104C47.9916 23.2606 48.01 24.4356 47.9916 25.5923C47.9916 26.29 47.5877 26.6572 46.89 26.6572C46.2842 26.6939 45.6966 26.6755 45.1275 26.6755ZM45.1642 24.711C45.8068 24.8212 46.0088 24.5274 46.0271 23.8849C46.0455 23.1872 45.7701 23.0036 45.1091 23.0036C44.4298 23.0036 44.3013 23.3157 44.3013 23.9032C44.283 24.5458 44.5216 24.8028 45.1642 24.711Z" fill="white"/>
</svg>
