<svg width="49" height="49" viewBox="0 0 49 49" fill="none" xmlns="http://www.w3.org/2000/svg">
<path d="M27.4002 24.8813C27.4002 25.6483 27.2677 26.3779 26.9079 27.0514C26.6618 27.5191 26.7375 27.8371 27.1162 28.1926C27.8357 28.8473 28.4985 29.5582 29.199 30.2317C31.0546 32.065 31.0168 32.4392 28.6121 33.5804C24.9387 35.3202 21.2654 37.0226 17.5921 38.7437C17.327 38.8559 17.0808 38.9869 16.8347 39.1178C15.9826 39.5668 15.9637 39.7352 16.6264 40.4087C17.5353 41.3253 18.4631 42.2046 19.3719 43.1213C20.7163 44.4869 20.7542 46.2829 19.5045 47.555C18.2737 48.8084 16.4181 48.8271 15.017 47.555C14.0134 46.657 13.0667 45.7029 12.1199 44.7301C11.7034 44.2998 11.3247 44.1689 10.7188 44.3747C9.204 44.8985 7.7839 44.5805 6.59101 43.5141C5.58748 42.6162 4.62181 41.6621 3.69401 40.6893C2.02775 38.9308 1.93308 36.7981 3.50466 34.946C4.52713 33.7674 5.66322 32.6824 6.7993 31.5973C7.46201 30.9613 7.97325 30.2317 8.37088 29.4086C10.1697 25.6296 11.9685 21.8507 13.8051 18.0904C14.6004 16.4629 15.1495 16.388 16.456 17.6414C17.2702 18.4272 18.0844 19.1942 18.8607 20.036C19.2962 20.5037 19.656 20.5411 20.2429 20.2979C23.6322 18.8387 27.3624 21.252 27.4002 24.8813ZM27.2866 31.5038C27.173 31.3729 27.0215 31.2045 26.8701 31.0548C23.2535 27.4817 19.637 23.9272 16.0394 20.3353C15.585 19.8864 15.3388 19.8302 15.0548 20.485C13.4832 23.815 11.8927 27.1449 10.2833 30.4562C10.075 30.8865 10.0939 31.1858 10.4537 31.5225C12.1389 33.1688 13.8051 34.8151 15.4524 36.48C15.8122 36.8355 16.1341 36.9664 16.6264 36.742C20.0346 35.1331 23.4429 33.5242 26.8701 31.9154C27.0405 31.8405 27.2488 31.8031 27.2866 31.5038ZM9.46909 42.3168C9.88565 42.2981 10.359 42.1111 10.7377 41.7556C11.7791 40.7641 12.8016 39.7352 13.8241 38.7437C14.1081 38.4818 14.1649 38.2573 13.8619 37.958C12.2525 36.3865 10.643 34.7964 9.05252 33.2062C8.7685 32.9256 8.54129 32.9069 8.25727 33.2062C7.17799 34.2913 6.02297 35.3015 5.05731 36.5175C4.47033 37.2658 4.4514 37.9954 5.05731 38.725C5.96617 39.8474 7.00758 40.8389 8.08686 41.793C8.42768 42.1298 8.86318 42.2981 9.46909 42.3168ZM17.2134 46.2267C17.5542 46.208 17.8382 46.0771 17.9708 45.759C18.1601 45.3101 18.0276 44.9172 17.6867 44.5805C16.7589 43.6638 15.7933 42.7471 14.9033 41.793C14.4678 41.344 14.1838 41.4563 13.843 41.8491C13.5211 42.2046 13.0099 42.4852 13.6158 43.0464C14.5815 43.9444 15.4903 44.8798 16.4371 45.7965C16.6075 46.0397 16.8726 46.2267 17.2134 46.2267ZM25.1281 24.9374C25.1281 23.235 23.6512 21.9068 21.966 22.0752C21.7388 22.0939 21.4737 22.0752 21.379 22.2809C21.2654 22.5241 21.5305 22.6551 21.663 22.8047C22.4962 23.6466 23.3482 24.4697 24.1813 25.2929C24.3707 25.4799 24.5411 25.8354 24.8441 25.7231C25.1849 25.5922 25.0523 25.1806 25.1281 24.9374Z" fill="white"/>
<path d="M9.58263 0.412109C11.5518 0.412109 13.5021 0.412109 15.4524 0.412109C17.4784 0.430817 18.6713 1.62811 18.6902 3.62983C18.7092 6.19278 18.7092 8.73702 18.6902 11.3C18.6902 13.2643 17.4216 14.5364 15.4524 14.5551C11.514 14.5738 7.55662 14.5738 3.6182 14.5551C1.649 14.5551 0.399306 13.2643 0.380371 11.3C0.380371 8.75572 0.380371 6.19278 0.380371 3.62983C0.399306 1.62811 1.61113 0.430817 3.63714 0.412109C5.62528 0.412109 7.59449 0.412109 9.58263 0.412109ZM2.59573 3.70466C2.59573 6.32373 2.59573 8.68089 2.59573 11.0381C2.59573 12.0483 2.91762 12.385 3.95903 12.385C7.67023 12.4037 11.4004 12.4037 15.1116 12.385C16.1908 12.385 16.4938 12.0483 16.4938 10.9632C16.4938 8.84926 16.4938 6.7353 16.4938 4.60262C16.4938 4.37813 16.6074 4.09752 16.2666 3.89173C14.5435 5.16385 12.8205 6.45468 11.0785 7.74551C9.60156 8.83056 9.50689 8.83056 8.04892 7.74551C6.28799 6.45468 4.56494 5.16385 2.59573 3.70466ZM4.90576 2.63832C6.43947 3.77949 7.80277 4.77099 9.14713 5.78121C9.35541 5.94958 9.58263 6.04311 9.82878 5.85604C11.2299 4.82712 12.6122 3.7982 14.2027 2.63832C11.0217 2.63832 8.10572 2.63832 4.90576 2.63832Z" fill="white"/>
<path d="M35.6936 31.6723C36.3942 32.0652 36.8865 31.6723 37.3031 30.9427C37.5303 30.5685 37.9847 30.3815 38.4392 30.3815C39.348 30.3628 40.2758 30.344 41.1847 30.3815C41.8663 30.4002 42.3776 30.793 42.6805 31.373C42.8888 31.7658 43.0592 31.9155 43.5515 31.7658C44.3657 31.5039 45.1042 31.7471 45.7101 32.3645C46.2213 32.8696 46.7515 33.356 47.2248 33.8985C47.8308 34.5907 47.3953 35.4699 47.5846 36.1808C47.7361 36.7982 48.929 37.0601 48.9668 37.9955C49.0047 38.9309 48.9858 39.8662 48.9668 40.8016C48.9668 41.1945 48.8154 41.6248 48.5124 41.7931C47.6035 42.2795 47.4521 42.9904 47.6603 43.8884C47.7172 44.169 47.5846 44.4496 47.4142 44.6741C46.7894 45.4973 46.0698 46.2456 45.2178 46.8442C44.5361 47.3306 43.6651 46.8255 43.0592 47.05C42.5101 47.2558 42.2829 48.266 41.4876 48.3782C40.3705 48.5279 39.0261 48.8272 38.1551 48.2847C37.0001 47.5738 35.6936 47.368 34.6143 46.8068C33.2132 46.0772 31.4901 44.9921 32.1528 42.8034C32.2664 42.4479 31.9635 42.3918 31.7552 42.2795C30.9789 41.868 30.6381 41.2132 30.657 40.3526C30.6759 39.6605 30.657 38.987 30.657 38.2948C30.657 37.771 30.7706 37.2098 31.2061 36.9666C31.9824 36.5176 32.2475 35.9751 32.0014 35.1145C31.9067 34.8152 32.0203 34.4784 32.2096 34.2165C32.8724 33.2999 33.6676 32.4954 34.6143 31.8594C34.8984 31.691 35.2203 31.6536 35.6936 31.6723ZM34.7658 36.4053C34.6901 37.2846 34.2925 37.9019 33.5351 38.3135C32.5883 38.8186 32.6073 39.9224 33.554 40.4649C34.6522 41.101 35.0309 41.9989 34.5386 43.1401C34.2925 43.72 34.5954 43.9445 34.8984 44.2251C35.2013 44.5057 35.3907 44.8986 35.9966 44.6367C37.2273 44.1316 38.0983 44.487 38.761 45.6282C39.2723 46.4888 40.4084 46.5075 40.9007 45.6469C41.5823 44.487 42.4533 44.1129 43.6651 44.618C44.2521 44.8612 44.4604 44.5245 44.7633 44.2251C45.0663 43.9258 45.4261 43.72 45.161 43.1401C44.6497 41.9802 45.0284 41.0822 46.1077 40.4462C47.0923 39.885 47.0923 38.8186 46.0888 38.2387C45.0474 37.64 44.6497 36.6859 45.1231 35.6383C45.4071 35.021 45.0852 34.7965 44.7444 34.4597C44.4415 34.1604 44.2142 33.8424 43.6462 34.0856C42.4912 34.572 41.5823 34.1978 40.9385 33.1315C40.3705 32.1587 39.3101 32.1774 38.7042 33.1876C38.1551 34.1043 37.2084 34.572 36.3185 34.1978C35.6936 33.9359 35.3339 34.0295 34.8605 34.4784C34.3682 34.9461 34.3682 35.339 34.6522 35.8628C34.728 36.0686 34.728 36.2744 34.7658 36.4053Z" fill="white"/>
<path d="M39.897 0.411879C41.8473 0.411879 43.8165 0.393171 45.7668 0.411879C47.736 0.430587 48.9667 1.62788 48.9857 3.55477C49.0046 6.17384 49.0046 8.79291 48.9857 11.412C48.9667 13.2079 47.717 14.5362 45.9182 14.5549C41.8473 14.5923 37.7763 14.5923 33.7054 14.5549C31.9444 14.5362 30.6948 13.2079 30.6758 11.4868C30.6569 8.81162 30.6569 6.11771 30.6758 3.44252C30.6948 1.684 31.9444 0.468002 33.7432 0.430587C35.8071 0.393171 37.8521 0.411879 39.897 0.411879ZM39.8402 2.60067C37.9846 2.60067 36.1101 2.60067 34.2545 2.60067C33.1752 2.60067 32.8912 2.88129 32.8912 3.92892C32.8722 6.30479 32.8722 8.66196 32.8912 11.0378C32.8912 12.048 33.2131 12.3848 34.2545 12.3848C37.9846 12.4035 41.6958 12.4035 45.4259 12.3848C46.4674 12.3848 46.7892 12.048 46.7892 11.0378C46.8082 8.66196 46.8082 6.30479 46.7892 3.92892C46.7892 2.88129 46.5052 2.61938 45.4259 2.60067C43.5703 2.58197 41.6958 2.60067 39.8402 2.60067Z" fill="white"/>
<path d="M27.9679 20.3545C27.4945 20.3358 27.1726 20.1487 26.9833 19.7933C26.756 19.4004 26.756 18.9701 27.059 18.6521C27.8353 17.829 28.6306 17.0432 29.4637 16.2762C29.8424 15.9208 30.3536 15.9769 30.7702 16.3136C31.1868 16.6504 31.3761 17.1368 31.0731 17.567C30.3347 18.6147 29.4069 19.4939 28.3655 20.261C28.2329 20.3358 28.0625 20.3358 27.9679 20.3545Z" fill="white"/>
<path d="M24.7493 15.9768C24.7493 16.4819 24.7682 16.9683 24.7493 17.4734C24.7114 18.0908 24.3895 18.4649 23.7457 18.5024C23.1209 18.5398 22.6665 18.1843 22.6286 17.6044C22.5528 16.5194 22.5528 15.4343 22.6286 14.3493C22.6665 13.7693 23.1019 13.3765 23.7268 13.3952C24.3327 13.4139 24.7114 13.788 24.7682 14.4054C24.7682 14.9105 24.7493 15.453 24.7493 15.9768Z" fill="white"/>
<path d="M31.263 24.4884C30.7328 24.4884 30.1837 24.5259 29.6536 24.4884C29.0855 24.451 28.7068 24.0956 28.669 23.5344C28.6122 22.917 28.9719 22.468 29.5589 22.3932C30.676 22.2435 31.8311 22.2622 32.9482 22.3932C33.5541 22.468 33.876 22.917 33.8381 23.5344C33.8003 24.1704 33.4026 24.4697 32.7778 24.5072C32.2666 24.5072 31.7553 24.4884 31.263 24.4884Z" fill="white"/>
<path d="M44.0057 39.38C44.0246 41.5688 42.0554 43.5144 39.8211 43.5144C37.6247 43.5144 35.7123 41.6436 35.6555 39.4548C35.5987 37.266 37.549 35.3017 39.7833 35.283C42.0176 35.2456 43.9868 37.1725 44.0057 39.38ZM39.8779 41.232C40.9572 41.2133 41.6957 40.4837 41.6957 39.4174C41.6957 38.2949 40.9383 37.5466 39.8022 37.5653C38.7229 37.5841 37.9845 38.3136 37.9845 39.38C37.9845 40.5024 38.7419 41.2507 39.8779 41.232Z" fill="white"/>
<path d="M36.6213 7.78253C36.5835 6.88456 36.6024 6.21108 36.7917 5.53761C37.1136 4.39644 38.2308 3.77909 39.3858 4.11582C40.5597 4.47127 41.6769 5.0325 42.6994 5.68727C44.1005 6.56653 44.0816 8.39988 42.6804 9.26043C41.7905 9.80295 40.8438 10.2519 39.897 10.6635C38.2118 11.4118 36.7728 10.5326 36.6213 8.6992C36.5835 8.32505 36.6213 7.95089 36.6213 7.78253ZM41.1278 7.44579C40.8248 7.09034 40.3893 6.9781 40.0106 6.79102C38.9692 6.2672 38.9503 6.26721 38.9503 7.40837C38.9503 8.68049 38.9503 8.68049 40.1242 8.08185C40.4651 7.91348 40.8816 7.81994 41.1278 7.44579Z" fill="white"/>
</svg>
