<svg width="49" height="49" viewBox="0 0 49 49" fill="none" xmlns="http://www.w3.org/2000/svg">
<path d="M0.299805 24.5298C0.299805 18.0415 0.299805 11.5722 0.299805 5.08385C0.299805 2.10529 2.08314 0.302979 5.08067 0.302979C18.1332 0.302979 31.1857 0.302979 44.2382 0.302979C47.2358 0.302979 49.0001 2.08632 49.0001 5.10282C49.0001 18.1174 49.0001 31.1509 49.0001 44.1655C49.0001 47.1631 47.2168 48.9464 44.2193 48.9464C31.1667 48.9464 18.1142 48.9464 5.0617 48.9464C2.08314 48.9464 0.299805 47.1441 0.299805 44.1655C0.299805 37.6203 0.299805 31.0751 0.299805 24.5298ZM24.6974 14.7974C17.9435 14.7974 11.1706 14.8163 4.41666 14.7784C3.56294 14.7784 3.27836 15.006 3.27836 15.8977C3.3163 25.1938 3.29733 34.49 3.29733 43.7671C3.29733 45.4366 3.69574 45.8161 5.38422 45.8161C18.247 45.8161 31.1098 45.8161 43.9726 45.8161C45.6422 45.8161 46.0406 45.4177 46.0406 43.7482C46.0406 34.49 46.0216 25.2318 46.0595 15.9736C46.0595 14.9871 45.737 14.7594 44.8074 14.7594C38.0914 14.8163 31.3944 14.7974 24.6974 14.7974ZM24.6595 11.686C31.4134 11.686 38.1863 11.667 44.9402 11.705C45.756 11.705 46.0595 11.4773 46.0406 10.6426C45.9836 8.87818 46.0216 7.09484 46.0216 5.33048C46.0216 3.88863 45.5852 3.43331 44.1813 3.43331C31.1667 3.43331 18.1522 3.43331 5.11861 3.43331C3.75265 3.43331 3.29733 3.88863 3.29733 5.25459C3.27836 6.82924 3.27836 8.42286 3.29733 9.99751C3.29733 11.8188 3.06967 11.705 4.94787 11.705C11.5121 11.686 18.0953 11.686 24.6595 11.686Z" fill="white"/>
<path d="M20.4098 41.7561C19.2526 41.7751 18.5885 40.7506 19.0628 39.5364C19.8597 37.5064 20.7513 35.5144 21.605 33.5224C23.4643 29.1968 25.3045 24.8713 27.1638 20.5457C27.8088 19.0659 28.5107 18.5727 29.5162 18.9711C30.4838 19.3505 30.6356 20.2801 30.0095 21.7599C27.3724 27.9068 24.7354 34.0726 22.0983 40.2194C21.7568 40.9972 21.4343 41.7561 20.4098 41.7561Z" fill="white"/>
<path d="M17.6399 24.6059C17.583 25.251 17.2415 25.6873 16.7862 26.0668C15.2494 27.2809 13.7507 28.5331 12.195 29.7283C11.5879 30.1836 11.6069 30.4872 12.195 30.9425C13.7697 32.1567 15.3064 33.4088 16.862 34.6609C17.6968 35.3439 17.8675 36.1787 17.3553 36.8996C16.862 37.6015 15.9135 37.7913 15.1736 37.2031C12.7831 35.3439 10.4117 33.4467 8.07815 31.5306C7.26236 30.8476 7.26236 29.8232 8.07815 29.1402C10.4117 27.2051 12.7831 25.3269 15.1736 23.4487C15.6858 23.0503 16.2739 23.0123 16.862 23.3348C17.3743 23.6194 17.583 24.0937 17.6399 24.6059Z" fill="white"/>
<path d="M41.7907 30.2973C41.8287 30.8854 41.5251 31.3028 41.0888 31.6632C38.8312 33.4845 36.5735 35.3058 34.2779 37.0891C33.4622 37.7342 32.5515 37.6203 32.0013 36.9184C31.4512 36.2164 31.584 35.3437 32.3997 34.6797C33.9175 33.4276 35.4352 32.1944 36.9909 31.0182C37.6739 30.5059 37.7687 30.2024 37.0288 29.6333C35.4352 28.438 33.8985 27.1859 32.3808 25.9148C31.3184 25.0231 31.5271 23.6382 32.7602 23.2018C33.3294 22.9932 33.8226 23.1639 34.259 23.5054C36.5546 25.3267 38.8501 27.1669 41.1267 29.0072C41.5251 29.3297 41.8097 29.7471 41.7907 30.2973Z" fill="white"/>
<path d="M37.4085 9.10564C36.1185 9.10564 34.8284 9.12461 33.5383 9.10564C32.3621 9.08667 31.6601 8.4606 31.6791 7.53099C31.6981 6.62035 32.3621 6.01325 33.5004 6.01325C36.1564 5.99428 38.7935 5.99428 41.4495 6.01325C42.5688 6.03222 43.2518 6.63932 43.2708 7.53099C43.2898 8.4606 42.5878 9.08667 41.4116 9.10564C40.0646 9.12461 38.7366 9.10564 37.4085 9.10564Z" fill="white"/>
<path d="M9.10275 7.58823C9.08378 8.40402 8.38183 9.087 7.56604 9.06803C6.73129 9.06803 6.01036 8.29019 6.04831 7.4744C6.10522 6.65862 6.82615 5.99461 7.62296 6.03256C8.45771 6.0705 9.12172 6.77245 9.10275 7.58823Z" fill="white"/>
<path d="M14.7941 7.56916C14.7941 8.36597 14.0922 9.06792 13.2764 9.08689C12.4416 9.08689 11.7017 8.347 11.7397 7.51224C11.7776 6.69646 12.4985 6.03245 13.2954 6.05142C14.1111 6.05142 14.7941 6.75337 14.7941 7.56916Z" fill="white"/>
<path d="M20.4855 7.56909C20.4666 8.3659 19.7836 9.06785 18.9678 9.06785C18.133 9.06785 17.3931 8.30898 17.4311 7.4932C17.469 6.67742 18.19 6.01341 18.9868 6.03238C19.8025 6.05135 20.4855 6.77227 20.4855 7.56909Z" fill="white"/>
</svg>
