<svg width="55" height="55" viewBox="0 0 55 55" fill="none" xmlns="http://www.w3.org/2000/svg">
<circle cx="27.5" cy="27.5" r="27" stroke="#3661FC"/>
<path d="M24.6574 16.6213C27.0691 16.6213 29.4816 16.6641 31.8916 16.6047C33.3445 16.5689 34.5896 17.5163 34.5844 19.3011C34.5818 20.2615 34.5949 21.222 34.5783 22.1816C34.573 22.4977 34.6787 22.5938 34.9913 22.5911C36.4975 22.578 38.0028 22.5955 39.509 22.5798C40.0111 22.5745 40.3176 22.7693 40.5228 23.2312C41.3348 25.0543 42.1678 26.8688 42.9973 28.6849C43.1178 28.9486 43.1754 29.2158 43.1746 29.5066C43.1684 31.2966 43.1728 33.0857 43.1711 34.8756C43.1702 35.6161 42.9056 35.8807 42.1661 35.8911C41.6107 35.899 41.6107 35.899 41.4151 36.4176C40.8947 37.7955 39.571 38.6756 38.0421 38.6617C36.6189 38.6495 35.2969 37.7143 34.8289 36.3408C34.7093 35.9907 34.5512 35.8807 34.1827 35.8815C30.5923 35.8964 27.0027 35.8938 23.4123 35.885C23.111 35.8841 22.9582 35.9549 22.8517 36.2701C22.3593 37.7335 21.0425 38.6608 19.5215 38.6608C18.0031 38.6608 16.6811 37.7291 16.1904 36.2701C16.0838 35.954 15.9319 35.8667 15.6298 35.885C15.3259 35.9034 15.0203 35.892 14.7156 35.8527C13.453 35.6921 12.503 34.4513 12.6707 33.1782C12.7091 32.8866 12.7213 32.5915 12.7588 32.2998C12.8121 31.8746 13.1395 31.5934 13.536 31.6196C13.9376 31.6458 14.2441 31.9977 14.2205 32.4308C14.2048 32.7242 14.1655 33.0167 14.1271 33.3083C14.0511 33.8933 14.4449 34.3395 15.0247 34.3945C15.6831 34.4574 16.0943 34.3465 16.3868 33.6104C16.9212 32.2649 18.306 31.5384 19.7721 31.6205C21.1403 31.6973 22.3855 32.643 22.8491 34.0034C22.9539 34.3116 23.098 34.3963 23.4062 34.3954C26.4727 34.3849 29.5393 34.3893 32.6049 34.3893C33.0738 34.3893 33.0808 34.3823 33.0808 33.9134C33.0808 29.0464 33.0817 24.1794 33.0799 19.3124C33.0799 19.0732 33.0965 18.8278 32.9804 18.6069C32.7813 18.2288 32.4644 18.0909 32.0383 18.0917C27.5319 18.0996 23.0246 18.097 18.5173 18.097C18.0921 18.097 17.666 18.0952 17.2408 18.0978C16.6863 18.1005 16.4366 18.2847 16.2524 18.8199C16.1162 19.2155 15.8752 19.4102 15.5233 19.4102C15.0509 19.4093 14.72 18.9955 14.8134 18.5222C15.0308 17.4238 15.9939 16.6248 17.1281 16.6231C19.6376 16.6178 22.148 16.6213 24.6574 16.6213ZM41.6064 34.3884C41.636 34.3806 41.6649 34.3727 41.6945 34.3648C41.6945 33.9335 41.6963 33.5022 41.6937 33.0708C41.6928 32.9215 41.5837 32.8988 41.4658 32.9014C41.3016 32.9049 41.1689 32.8447 41.065 32.7181C40.8127 32.4116 40.8179 31.6196 41.0755 31.3245C41.1418 31.2485 41.223 31.1647 41.3182 31.1717C41.7155 31.2031 41.7234 30.9578 41.7007 30.6722C41.6893 30.5308 41.6867 30.3876 41.7015 30.247C41.726 30.0051 41.6002 29.9292 41.3854 29.8881C38.2569 29.297 36.2644 27.4616 35.4401 24.389C35.3301 23.9777 35.0795 24.0615 34.8228 24.0615C34.4945 24.0615 34.5888 24.3217 34.5888 24.4955C34.5835 27.6712 34.5844 30.8478 34.587 34.0234C34.587 34.1352 34.5573 34.2574 34.656 34.398C35.172 32.7259 36.2399 31.6982 37.9784 31.6353C39.8705 31.569 41.0379 32.6159 41.6064 34.3884ZM19.5224 37.1878C20.6679 37.1878 21.597 36.2614 21.5865 35.1315C21.576 34.0103 20.6557 33.0953 19.5363 33.0909C18.3803 33.0874 17.4425 34.0226 17.4556 35.1664C17.4669 36.2849 18.3916 37.1887 19.5224 37.1878ZM36.0906 35.1262C36.0854 36.2893 36.969 37.186 38.1251 37.1878C39.2706 37.1904 40.1927 36.2771 40.1927 35.1393C40.1927 34.0199 39.2759 33.0979 38.1556 33.0909C36.9969 33.0839 36.0958 33.9728 36.0906 35.1262ZM38.1085 24.0598C37.8142 24.0598 37.5191 24.0746 37.2266 24.0554C36.9218 24.0353 36.8729 24.1523 36.9611 24.4195C37.6134 26.3955 38.9266 27.6921 40.9218 28.292C40.9916 28.313 41.0702 28.3662 41.1348 28.2946C41.2003 28.2222 41.1375 28.1488 41.1078 28.0842C40.5324 26.8146 39.9535 25.5468 39.3798 24.2772C39.3064 24.1148 39.1982 24.0528 39.0235 24.058C38.7179 24.0659 38.4132 24.0598 38.1085 24.0598Z" fill="#3661FC"/>
<path d="M23.7993 30.1492C22.8283 30.1492 21.8582 30.1501 20.8873 30.1492C20.173 30.1483 19.8945 29.8515 19.9696 29.132C20.07 28.168 20.1931 27.2067 20.3084 26.2444C20.4097 25.401 20.5249 24.5592 20.6096 23.7149C20.6489 23.3289 20.8035 23.0434 21.1134 22.8094C22.0355 22.1126 22.9488 21.4036 23.8595 20.6929C24.0761 20.5235 24.3092 20.4327 24.5816 20.4344C26.6091 20.451 28.6375 20.4632 30.6649 20.4859C31.1399 20.4912 31.4298 20.7846 31.3914 21.2596C31.3207 22.138 31.2142 23.0146 31.1129 23.8904C30.9941 24.9181 30.8588 25.9432 30.7418 26.9718C30.7025 27.3175 30.5698 27.5865 30.2869 27.8004C29.3901 28.4771 28.5004 29.1625 27.615 29.8532C27.3443 30.0645 27.0579 30.1623 26.7104 30.1571C25.7403 30.1396 24.7702 30.1492 23.7993 30.1492ZM24.4236 24.258C23.7801 24.258 23.1374 24.258 22.4939 24.258C22.0285 24.258 22.0259 24.258 21.9726 24.7103C21.8329 25.9109 21.7089 27.1132 21.55 28.3112C21.509 28.6186 21.5884 28.684 21.8766 28.6814C23.2064 28.6701 24.5371 28.6771 25.8669 28.6762C26.3192 28.6762 26.3245 28.6622 26.376 28.2029C26.5104 27.0023 26.6388 25.8 26.8012 24.6029C26.8431 24.2947 26.7453 24.2501 26.4842 24.2545C25.7979 24.265 25.1108 24.258 24.4236 24.258ZM27.9197 27.6537C27.9433 27.6721 27.9669 27.6895 27.9904 27.7079C28.3991 27.3883 28.8095 27.0704 29.2155 26.7474C29.3072 26.674 29.3142 26.5614 29.3264 26.4505C29.4067 25.759 29.494 25.0683 29.5744 24.3759C29.6294 23.9061 29.6765 23.4355 29.7359 22.8775C29.3115 23.2006 28.9632 23.4748 28.606 23.735C28.4131 23.8755 28.3327 24.0519 28.3118 24.2868C28.2672 24.774 28.1974 25.2595 28.1398 25.7459C28.0647 26.3815 27.9931 27.0181 27.9197 27.6537ZM23.6587 22.7308C23.7888 22.8216 23.911 22.785 24.0254 22.785C24.9614 22.7885 25.901 22.7335 26.8318 22.8042C27.5661 22.8601 27.925 22.3606 28.4445 22.007C28.2576 21.9188 28.1144 21.9485 27.9774 21.9476C27.1723 21.938 26.3559 22.0157 25.5648 21.9039C24.7117 21.7843 24.2166 22.255 23.6587 22.7308Z" fill="#3661FC"/>
<path d="M17.0513 21.5669C16.2768 21.5669 15.5032 21.5695 14.7287 21.5661C14.2031 21.5634 13.8713 21.2744 13.8704 20.8309C13.8695 20.3873 14.2013 20.0939 14.7252 20.093C16.2847 20.0904 17.8442 20.0878 19.4028 20.0939C20.0541 20.0965 20.4357 20.6353 20.1685 21.1574C20.0114 21.4656 19.7354 21.5669 19.4071 21.5669C18.6213 21.5661 17.8363 21.5661 17.0513 21.5669Z" fill="#3661FC"/>
<path d="M14.7553 25.6935C14.1013 25.6935 13.4473 25.697 12.7933 25.6926C12.2694 25.6891 11.9315 25.3931 11.9341 24.953C11.9367 24.5147 12.2755 24.2222 12.802 24.2204C14.0987 24.2161 15.3962 24.2161 16.6928 24.2204C17.2202 24.2222 17.5608 24.5121 17.5669 24.9478C17.5738 25.3966 17.2281 25.6908 16.6832 25.6935C16.0414 25.6961 15.3979 25.6943 14.7553 25.6935Z" fill="#3661FC"/>
<path d="M14.8704 29.9475C14.5211 29.9475 14.1718 29.9571 13.8234 29.9449C13.3659 29.9292 13.0673 29.6297 13.0682 29.2097C13.069 28.7897 13.3685 28.4858 13.8261 28.478C14.5237 28.4658 15.2222 28.4658 15.9199 28.4789C16.3521 28.4867 16.6525 28.7949 16.6595 29.1957C16.6665 29.6131 16.3643 29.9222 15.9173 29.9458C15.7435 29.9545 15.568 29.9484 15.3934 29.9493C15.2188 29.9493 15.0441 29.9493 14.8695 29.9493L14.8704 29.9475Z" fill="#3661FC"/>
<path d="M19.5289 34.4137C19.934 34.4181 20.258 34.7438 20.2536 35.1428C20.2492 35.5392 19.9209 35.8536 19.5132 35.851C19.1098 35.8483 18.7832 35.5209 18.7884 35.1271C18.7945 34.7263 19.1237 34.4094 19.5289 34.4137Z" fill="#3661FC"/>
<path d="M38.1194 35.8501C37.7177 35.844 37.3868 35.5113 37.3955 35.1227C37.4051 34.7263 37.7404 34.4067 38.1394 34.4129C38.5472 34.419 38.8607 34.7386 38.8554 35.1446C38.8511 35.5506 38.5324 35.8562 38.1194 35.8501Z" fill="#3661FC"/>
</svg>
