<svg width="15" height="16" viewBox="0 0 15 16" fill="none" xmlns="http://www.w3.org/2000/svg">
<path d="M4.88833 13.7501C5.05147 13.6108 5.16799 13.5411 5.23791 13.4367C5.85551 12.5892 6.68285 12.3454 7.71995 12.4151C9.15323 12.4963 10.5865 12.4383 12.0315 12.4383C13.1385 12.4383 13.7328 11.8695 13.7444 10.7666C13.7561 8.17783 13.7561 5.58904 13.7444 2.98865C13.7328 1.87419 13.1734 1.34018 12.0315 1.32857C11.5071 1.32857 10.9827 1.34018 10.4583 1.31697C10.0039 1.30536 9.56108 1.20088 9.57273 0.632041C9.58438 0.0864219 10.0039 0.00515951 10.4467 0.00515951C11.0643 0.00515951 11.6935 -0.00644939 12.3111 0.00515951C13.826 0.0515951 14.9913 1.21249 14.9913 2.72164C15.0029 5.42652 15.0029 8.13139 14.9913 10.8479C14.9913 12.566 13.8493 13.7269 12.1247 13.7501C10.5283 13.7733 8.94348 13.7617 7.34706 13.7501C6.92756 13.7501 6.61294 13.8662 6.32162 14.1796C5.8322 14.702 5.29617 15.1896 4.79511 15.6888C4.53875 15.9442 4.25908 16.0951 3.9095 15.9326C3.58322 15.7933 3.52496 15.4798 3.5133 15.1548C3.49 14.7369 3.66479 14.2493 3.42008 13.901C3.17537 13.5528 2.651 13.7617 2.26646 13.6805C0.961352 13.3902 0.0291319 12.357 0.0174791 11.0104C-0.00582637 8.25909 -0.00582637 5.51939 0.0174791 2.76808C0.0291319 1.20088 1.22937 0.0399862 2.80249 0.0167684C3.50165 0.00515951 4.20082 0.0167684 4.89998 0.0167684C5.31948 0.0167684 5.64576 0.167684 5.65741 0.632041C5.66906 1.11961 5.33113 1.31697 4.89998 1.32857C4.20082 1.35179 3.50165 1.32857 2.80249 1.34018C1.90522 1.3634 1.34589 1.90902 1.34589 2.80291C1.33424 5.50778 1.33424 8.21266 1.34589 10.9291C1.34589 11.8811 1.91688 12.4267 2.88406 12.4383C3.0938 12.4383 3.31521 12.4383 3.52496 12.4383C4.67858 12.4383 4.76015 12.508 4.88833 13.7501Z" fill="#3661FC"/>
<path d="M2.919 6.20438C2.919 5.35693 2.90735 4.49787 2.919 3.65042C2.93065 2.88423 3.28024 2.64044 4.01436 2.8378C4.23576 2.89584 4.46882 2.96549 4.67857 3.04676C6.39152 3.74329 8.15109 4.06834 10.0155 3.95225C11.1109 3.8826 11.9615 4.5443 12.2762 5.51945C12.5791 6.43656 12.2645 7.4117 11.4255 8.03859C11.1691 8.22433 11.041 8.4449 10.9711 8.74673C10.8312 9.40844 10.6564 10.0585 10.5049 10.7202C10.4001 11.1846 10.1204 11.4168 9.64264 11.4284C9.15322 11.4284 8.67546 11.44 8.18604 11.4284C7.65002 11.4168 7.3587 11.1266 7.34705 10.5925C7.33539 10.0934 7.32374 9.58257 7.34705 9.08339C7.37035 8.59581 7.17225 8.52616 6.75276 8.67707C5.91376 8.9673 5.06311 9.24591 4.21246 9.51292C3.19867 9.83797 2.90735 9.60579 2.90735 8.53777C2.919 7.75997 2.919 6.98218 2.919 6.20438ZM4.24741 6.20438C4.24741 6.70356 4.25907 7.20274 4.24741 7.70193C4.24741 7.99215 4.34064 8.0618 4.63196 8.00376C6.48474 7.60906 6.63623 7.42331 6.55466 5.55428C6.55466 5.53106 6.55466 5.51945 6.55466 5.49623C6.56631 5.18279 6.43813 4.98544 6.13516 4.90418C5.66905 4.76487 5.21459 4.62557 4.76014 4.46304C4.3989 4.33534 4.24741 4.43982 4.25907 4.82292C4.25907 5.27567 4.24741 5.74002 4.24741 6.20438ZM9.22314 5.27567C8.90851 5.27567 8.60554 5.27567 8.29092 5.27567C7.95299 5.27567 7.82481 5.48463 7.88307 5.76324C7.98795 6.2392 7.5801 6.80804 8.13943 7.19114C8.15109 7.20274 8.17439 7.20274 8.1977 7.20274C8.87356 7.20274 9.56107 7.22596 10.2253 7.16792C10.7613 7.12148 11.0876 6.65713 11.0526 6.14633C11.0293 5.64715 10.6914 5.3221 10.1321 5.28727C9.84073 5.25245 9.52611 5.27567 9.22314 5.27567ZM8.69876 9.29235C8.68711 9.40844 8.68711 9.52453 8.68711 9.64061C8.69876 9.84958 8.67546 10.0818 8.99008 10.105C9.26975 10.1282 9.36297 9.94245 9.42124 9.72188C9.4795 9.47809 9.52611 9.2343 9.59603 8.99052C9.66594 8.75834 9.66594 8.54938 9.35132 8.53777C9.09496 8.52616 8.76868 8.43329 8.71042 8.8396C8.67546 8.97891 8.69876 9.12982 8.69876 9.29235Z" fill="#3661FC"/>
<path d="M8.25593 0.666848C8.19766 1.03833 7.98792 1.28212 7.61503 1.27051C7.23049 1.2589 6.99743 1.02672 7.00908 0.64363C7.02074 0.260536 7.26544 0.0283577 7.63833 0.0399666C8.02287 0.0399666 8.23262 0.283754 8.25593 0.666848Z" fill="#3661FC"/>
</svg>
