<svg width="15" height="15" viewBox="0 0 15 15" fill="none" xmlns="http://www.w3.org/2000/svg">
<path d="M7.32322 5.57678L7.5 5.75355L7.67678 5.57678L12.6268 0.626777C13.1291 0.124408 13.8709 0.124408 14.3732 0.626777C14.8756 1.12915 14.8756 1.87085 14.3732 2.37322L9.42322 7.32322L9.24645 7.5L9.42322 7.67678L14.3732 12.6268C14.8756 13.1291 14.8756 13.8709 14.3732 14.3732C13.8709 14.8756 13.1291 14.8756 12.6268 14.3732L7.67678 9.42322L7.5 9.24645L7.32322 9.42322L2.37322 14.3732C1.87085 14.8756 1.12915 14.8756 0.626777 14.3732C0.124408 13.8709 0.124408 13.1291 0.626777 12.6268L5.57678 7.67678L5.75355 7.5L5.57678 7.32322L0.626777 2.37322C0.124408 1.87085 0.124408 1.12915 0.626777 0.626777C1.12915 0.124408 1.87085 0.124408 2.37322 0.626777L7.32322 5.57678Z" fill="#9A9A9A" stroke="white" stroke-width="0.5"/>
</svg>
