<svg width="13" height="16" viewBox="0 0 13 16" fill="none" xmlns="http://www.w3.org/2000/svg">
<path d="M1.90775 16C1.68971 15.9295 1.46414 15.8826 1.25738 15.7847C0.430307 15.3894 -0.0320992 14.5362 0.00173543 13.5929C0.0430888 12.4735 0.298728 11.4245 0.828804 10.45C1.54309 9.13486 2.56565 8.16811 3.89271 7.5497C3.97918 7.51056 4.06565 7.47142 4.17091 7.42054C2.90399 6.3481 2.35512 4.98212 2.63707 3.30693C2.80249 2.32843 3.29121 1.52215 4.03557 0.903743C5.67843 -0.458325 7.95663 -0.231314 9.32505 1.25209C10.1446 2.14056 10.5168 3.213 10.419 4.44199C10.3213 5.67098 9.7649 6.64948 8.82505 7.41271C9.02806 7.51056 9.21227 7.58884 9.39272 7.68669C10.9942 8.53994 12.092 9.85895 12.6747 11.6281C12.919 12.3678 13.0356 13.135 12.9905 13.9178C12.9303 14.9511 12.1596 15.8121 11.1747 15.9687C11.1484 15.9726 11.122 15.9883 11.092 16C8.02806 16 4.9679 16 1.90775 16ZM6.5055 14.771C7.91151 14.771 9.31753 14.7632 10.7198 14.7749C11.4491 14.7788 11.8702 14.223 11.81 13.6086C11.7875 13.3855 11.7837 13.1624 11.7499 12.9393C11.5168 11.3267 10.7499 10.039 9.44911 9.15052C7.76866 8.00372 5.9679 7.85107 4.16339 8.7826C2.23106 9.78067 1.25362 11.4676 1.18219 13.7142C1.17843 13.8747 1.21978 14.0508 1.28369 14.1917C1.47542 14.6066 1.82504 14.7671 2.25362 14.7671C3.67467 14.771 5.09196 14.771 6.5055 14.771ZM6.49046 6.97043C8.0055 6.97825 9.24986 5.69447 9.25738 4.1093C9.2649 2.53588 8.03557 1.24426 6.5055 1.2286C5.0055 1.20903 3.7461 2.51239 3.73858 4.09364C3.73106 5.66707 4.97166 6.9626 6.49046 6.97043Z" fill="#3661FC"/>
</svg>
