<svg width="292" height="406" viewBox="0 0 292 406" fill="none" xmlns="http://www.w3.org/2000/svg">
<path d="M279.648 311.528L279.648 311.526L279.704 311.222C284.784 283.328 290.243 253.359 289.91 224.842C289.576 196.19 283.398 168.785 264.958 146.272C245.898 123 215.39 108.131 174.636 101.796C159.176 99.3725 143.341 98.2686 128.065 97.2036C127.576 97.1696 127.088 97.1355 126.601 97.1015L126.598 97.1013C109.277 95.9145 91.4702 94.681 74.2432 91.6325L74.2374 91.6315C15.7576 81.4598 -37.8631 49.6141 -76.2639 4.70608L-77.3443 3.44263L-78.7839 4.27382L-80 4.9759L-82.0812 6.17749L-80.5216 8.00587C-41.3492 53.9301 13.5315 86.5473 73.297 96.9357L73.2982 96.9359C90.8511 99.9762 108.888 101.264 126.226 102.424C141.919 103.505 158.122 104.635 173.808 107.087L173.808 107.087C213.616 113.307 242.784 127.682 260.791 149.658C278.255 170.979 284.242 197.164 284.542 225.112C284.843 253.092 279.445 282.618 274.325 310.508L274.325 310.51C263.853 367.848 260.53 416.383 264.322 458.853C266.779 486.613 272.394 512.006 281.084 534.845L281.919 537.04L283.953 535.866L284.952 535.289L286.429 534.436L285.82 532.843C264.471 476.974 262.578 404.911 279.648 311.528Z" fill="white" stroke="white" stroke-width="4"/>
</svg>
