<svg width="363" height="484" viewBox="0 0 363 484" fill="none" xmlns="http://www.w3.org/2000/svg">
<path d="M29.7494 207.081L29.7493 207.082L29.722 207.391C27.2147 235.632 24.5208 265.975 27.4606 294.342C30.4144 322.844 39.0738 349.568 59.4964 370.299C80.6055 391.73 112.345 403.746 153.509 406.326C169.125 407.325 184.994 406.976 200.304 406.639C200.794 406.628 201.283 406.617 201.771 406.607L201.774 406.606C219.131 406.204 236.976 405.803 254.41 407.263L254.416 407.263C313.581 412.042 369.89 438.849 412.238 480.056L413.43 481.215L414.787 480.255L415.934 479.445L417.896 478.058L416.176 476.38C372.967 434.232 315.332 406.772 254.867 401.895L254.866 401.895C237.108 400.473 219.029 400.841 201.658 401.272C185.932 401.631 169.693 401.988 153.849 400.982L153.849 400.982C113.639 398.429 83.2781 386.783 63.3357 366.547C43.9948 346.913 35.6371 321.386 32.7814 293.582C29.9225 265.747 32.5959 235.851 35.1434 207.609L35.1435 207.607C40.3253 149.552 39.1947 100.916 31.5336 58.9711C26.5471 31.553 18.6324 6.78023 7.88978 -15.1684L6.85724 -17.278L4.93914 -15.9225L3.99721 -15.2568L2.60436 -14.2725L3.35637 -12.7417C29.7274 40.9401 38.2044 112.527 29.7494 207.081Z" fill="white" stroke="white" stroke-width="4"/>
</svg>
